PathFileType	4	(X/Y/Z)	C:/Users/beibeiliu/ov580/test_trc\sequence.17_training_dense_right.trc
DataRate	CameraRate	NumFrames	NumMarkers	Units	OrigDataRate	OrigDataStartFrame	OrigNumFrames
120	120	8	19	mm	120	1	303
Frame#	Time	ThumbCMC			ThumbMCP			ThumbIP			ThumbTip			IndexMCP			IndexPIP			IndexTip			MiddleMCP			MiddlePIP			MiddleTip			RingMCP			RingPIP			RingTip			PinkyMCP			PinkyPIP			PinkyTip			BackHand1			BackHand2			BackHand3	
		X0	Y0	Z0	X1	Y1	Z1	X2	Y2	Z2	X3	Y3	Z3	X4	Y4	Z4	X5	Y5	Z5	X6	Y6	Z6	X7	Y7	Z7	X8	Y8	Z8	X9	Y9	Z9	X10	Y10	Z10	X11	Y11	Z11	X12	Y12	Z12	X13	Y13	Z13	X14	Y14	Z14	X15	Y15	Z15	X16	Y16	Z16	X17	Y17	Z17	X18	Y18	Z18	
0	0	157.708	-41.338	44.3704	134.933	-44.3903	26.7945	123.586	-45.6276	6.04526	112.622	-45.893	-7.74834	163.095	-41.6779	-24.8195	159.364	-47.6675	-49.4287	152.881	-49.4024	-67.2017	188.473	-44.3096	-30.3848	184.947	-48.5003	-52.793	189.495	-52.5351	-78.0271	205.711	-49.1136	-22.7872	208.92	-51.9683	-44.645	214.666	-53.8496	-65.4943	222.4	-54.8058	-8.14548	231.331	-56.5798	-22.8292	241.116	-53.873	-34.5869	202.865	-35.7587	18.9897	201.814	-27.1216	45.1883	177.519	-26.7768	31.2331	
1	0.00833333	156.473	-40.6641	39.2142	139.85	-45.5202	27.1171	125.852	-45.4812	4.30105	111.137	-46.1871	-4.8453	164.137	-42.0879	-24.944	158.316	-45.4257	-49.2076	157.434	-49.8686	-71.3111	185.773	-43.8124	-29.6575	185.353	-48.6317	-57.1964	189.964	-51.9683	-80.4986	204.601	-48.2258	-25.4612	213.654	-52.2599	-41.4796	213.895	-53.5808	-65.7281	222.391	-54.7244	-7.66004	233.034	-55.7237	-24.2286	239.742	-53.3161	-40.6104	203.437	-36.4057	18.9302	202.848	-28.4244	44.6318	177.894	-26.1212	27.6755	
2	0.0166667	156.643	-40.3249	44.0595	140.868	-45.3238	24.3139	125.363	-44.8876	5.39119	114.499	-45.6594	-7.48826	165.923	-41.9071	-25.8417	159.289	-44.8653	-45.9145	159.748	-48.8358	-68.6665	187.335	-44.0486	-35.0603	186.568	-47.9493	-57.2054	191.862	-52.3292	-82.3593	208.66	-48.6616	-24.0189	210.971	-51.8988	-42.3272	215.756	-54.7803	-64.7778	224.298	-53.2949	-9.19685	233.297	-56.6932	-22.29	240.066	-53.515	-37.1154	205.61	-36.3608	17.4786	207.121	-28.2144	41.4788	181.208	-25.7426	28.6743	
3	0.025	156.616	-39.6487	41.0441	139.524	-44.098	27.4141	126.621	-44.3447	4.03891	112.712	-45.4472	-7.67323	165.324	-41.0405	-23.9455	160.894	-45.1888	-50.4329	162.554	-48.9851	-70.7298	192.813	-43.9942	-32.7163	192.324	-48.6504	-57.9742	196.066	-53.1257	-80.1304	208.792	-47.4548	-25.6891	214.483	-51.53	-46.0002	216.165	-55.2757	-65.4466	225.163	-53.5795	-7.77119	232.767	-56.7646	-20.618	244.645	-53.7128	-39.5075	204.092	-34.2291	17.242	206.383	-29.7015	44.5363	178.449	-26.6912	25.1972	
4	0.0333333	156.616	-38.3366	40.2288	141.526	-43.7954	26.6546	127.365	-43.5791	6.15799	114.385	-45.1979	-8.43469	167.914	-40.5171	-27.1877	161.957	-43.2533	-46.8766	163.769	-48.7607	-69.3848	189.416	-42.5647	-28.9496	191.698	-48.5067	-57.2189	194.693	-51.1532	-78.0623	208.629	-48.3927	-20.1494	212.858	-51.5973	-46.2893	217.902	-54.4038	-66.2444	226.798	-54.5325	-4.12272	236.239	-55.7864	-23.9319	245.883	-55.1451	-39.1908	205.581	-34.747	21.1947	210.266	-27.9437	44.8966	184.715	-26.6956	29.6399	
5	0.0416667	158.081	-39.1016	39.6657	144.391	-44.7107	25.9703	130.858	-45.3315	10.0461	117.353	-45.4922	-5.14567	165.718	-40.6822	-24.8727	166.635	-44.2822	-48.7932	158.198	-47.4429	-71.5134	192.753	-42.811	-28.5612	194.947	-47.149	-53.0805	194.994	-50.5694	-75.8439	208.958	-47.5254	-23.2951	216.346	-50.7818	-42.0764	215.985	-54.2526	-62.0155	230.194	-54.033	-6.42915	234.301	-55.2571	-20.6707	249.087	-53.0394	-38.4622	210.602	-36.086	19.1694	208.292	-28.87	42.6628	185.209	-26.8936	26.2681	
6	0.05	161.242	-39.7228	40.6777	142.205	-42.5596	28.006	127.223	-42.3508	8.39739	114.939	-44.3756	-3.56323	167.851	-40.1518	-25.0047	162.19	-42.8831	-48.6841	164.3	-47.434	-70.3095	190.812	-41.6551	-29.8901	193.112	-46.7383	-53.1693	196.285	-50.6107	-77.6885	213.78	-47.1674	-22.628	218.01	-50.7352	-42.0291	220.204	-53.4731	-61.4349	227.409	-53.3265	-4.87885	239.346	-56.0138	-21.3538	249.448	-52.6217	-38.7893	207.998	-33.5684	21.7018	206.917	-28.0078	44.9344	183.802	-26.6027	27.1436	
7	0.0583333	161.415	-38.4756	44.8755	143.84	-41.5216	27.3475	130.132	-41.8034	8.71291	116.614	-42.0678	-5.83712	167.317	-38.1326	-25.5086	166.763	-43.177	-50.5884	163.468	-45.8621	-72.8357	194.304	-41.9738	-31.6555	194.827	-46.3521	-54.8727	200.916	-50.4682	-81.6446	215.684	-47.2135	-23.3805	220.485	-50.0716	-43.3248	218.816	-51.2948	-61.9427	228.606	-51.9895	-3.75944	236.161	-54.0228	-19.4907	249.708	-49.6419	-35.3616	208.931	-31.9574	17.0684	209.144	-26.0887	46.48	183.009	-24.0702	29.8709	
